HIERARCHY
ROOT Hips
{
	OFFSET -3.958830 18.904000 13.208200
	CHANNELS 6 Xposition Yposition Zposition Zrotation Yrotation Xrotation 
	JOINT LHipJoint
	{
		OFFSET 0.000000 0.000000 0.000000
		CHANNELS 3 Zrotation Yrotation Xrotation
		JOINT LeftUpLeg
		{
			OFFSET 1.800000 -1.400000 0.085000
			CHANNELS 3 Zrotation Yrotation Xrotation
			JOINT LeftLeg
			{
				OFFSET 2.215000 -6.000000 0.000000
				CHANNELS 3 Zrotation Yrotation Xrotation
				JOINT LeftFoot
				{
					OFFSET 2.500000 -6.900000 0.000000
					CHANNELS 3 Zrotation Yrotation Xrotation
					JOINT LeftToeBase
					{
						OFFSET 0.200000 -0.500000 1.950000
						CHANNELS 3 Zrotation Yrotation Xrotation
						End Site
						{
							OFFSET 0.000000 0.000000 0.000000
						}
					}
				}
			}
		}
	}
	JOINT RHipJoint
	{
		OFFSET 0.000000 0.000000 0.000000
		CHANNELS 3 Zrotation Yrotation Xrotation
		JOINT RightUpLeg
		{
			OFFSET -1.800000 -1.400000 0.085000
			CHANNELS 3 Zrotation Yrotation Xrotation
			JOINT RightLeg
			{
				OFFSET -2.215000 -6.000000 0.000000
				CHANNELS 3 Zrotation Yrotation Xrotation
				JOINT RightFoot
				{
					OFFSET -2.500000 -6.900000 0.000000
					CHANNELS 3 Zrotation Yrotation Xrotation
					JOINT RightToeBase
					{
						OFFSET -0.200000 -0.500000 1.950000
						CHANNELS 3 Zrotation Yrotation Xrotation
						End Site
						{
							OFFSET 0.000000 0.000000 0.000000
						}
					}
				}
			}
		}
	}
	JOINT LowerBack
	{
		OFFSET 0.000000 0.000000 0.000000
		CHANNELS 3 Zrotation Yrotation Xrotation
		JOINT Spine
		{
			OFFSET -0.087000 1.940000 -0.288900
			CHANNELS 3 Zrotation Yrotation Xrotation
			JOINT Spine1
			{
				OFFSET 0.000000 1.950000 0.060000
				CHANNELS 3 Zrotation Yrotation Xrotation
				JOINT Neck
				{
					OFFSET 0.000000 0.000000 0.000000
					CHANNELS 3 Zrotation Yrotation Xrotation
					JOINT Neck1
					{
						OFFSET 0.000000 1.600000 0.340000
						CHANNELS 3 Zrotation Yrotation Xrotation
						JOINT Head
						{
							OFFSET 0.000000 1.667000 -0.240000
							CHANNELS 3 Zrotation Yrotation Xrotation
							End Site
							{
								OFFSET 0.000000 0.000000 0.000000
							}
						}
					}
				}
				JOINT LeftShoulder
				{
					OFFSET 0.000000 0.000000 0.000000
					CHANNELS 3 Zrotation Yrotation Xrotation
					JOINT LeftArm
					{
						OFFSET 2.700000 1.550000 -0.730000
						CHANNELS 3 Zrotation Yrotation Xrotation
						JOINT LeftForeArm
						{
							OFFSET 5.450000 0.000000 0.000000
							CHANNELS 3 Zrotation Yrotation Xrotation
							JOINT LeftHand
							{
								OFFSET 3.450000 0.000000 0.000000
								CHANNELS 3 Zrotation Yrotation Xrotation
								JOINT LeftHandIndex1
								{
									OFFSET 0.750000 0.000000 0.000000
									CHANNELS 3 Zrotation Yrotation Xrotation
									End Site
									{
										OFFSET 0.000000 0.000000 0.000000
									}
								}
							}
						}
					}
				}
				JOINT RightShoulder
				{
					OFFSET 0.000000 0.000000 0.000000
					CHANNELS 3 Zrotation Yrotation Xrotation
					JOINT RightArm
					{
						OFFSET -2.700000 1.550000 -0.730000
						CHANNELS 3 Zrotation Yrotation Xrotation
						JOINT RightForeArm
						{
							OFFSET -5.450000 0.000000 0.000000
							CHANNELS 3 Zrotation Yrotation Xrotation
							JOINT RightHand
							{
								OFFSET -3.450000 0.000000 0.000000
								CHANNELS 3 Zrotation Yrotation Xrotation
								JOINT RightHandIndex1
								{
									OFFSET -0.750000 0.000000 0.000000
									CHANNELS 3 Zrotation Yrotation Xrotation
									End Site
									{
										OFFSET 0.000000 0.000000 0.000000
									}
								}
							}
						}
					}
				}
			}
		}
	}
}
MOTION
Frames: 4
Frame Time: 0.016667
-0.803170 18.995030 -1.986640 -14.491806 19.188167 -11.206811 -14.927237 12.643873 1.498123 5.428392 -1.043527 -10.996262 3.596092 3.535386 18.423577 -0.708885 4.132825 3.387594 -0.327030 -0.633040 -0.397360 18.839791 -9.095485 5.711450 0.829585 14.857080 -53.076846 1.825257 -17.229098 75.521464 -2.217218 -12.455704 0.217254 -0.359340 0.851930 0.474630 -5.035713 -1.475551 -8.526274 28.097394 -16.044359 30.261228 -13.805398 -6.307523 10.905722 4.521658 -0.131169 -12.109447 -3.626407 0.428529 48.157096 -3.987520 -0.546580 -1.377290 -11.905259 -11.615513 5.534612 -6.619178 12.602298 -7.664866 73.901095 -53.787674 -37.536059 -3.860003 2.072518 0.734260 0.317240 0.008900 0.237600 2.672267 8.673860 8.533860 15.315007 -5.733265 -9.493411 -39.539492 31.008461 -8.829914 1.942910 -1.202599 -0.442400 0.454510 0.517570 0.068370 
-0.700990 18.930750 -2.012790 -11.372487 19.221369 -9.589768 -14.940344 12.638243 1.669269 2.230045 -1.540959 -11.373548 5.046972 3.148793 22.506657 -0.702294 4.298057 3.254213 -0.202060 -0.490160 -0.204140 18.815948 -9.152366 5.691157 -1.053029 13.509296 -54.705255 2.942379 -15.183704 67.910523 -1.881734 -10.861624 0.587433 -0.303370 0.659580 0.485730 -4.993902 -1.434456 -8.569570 24.799264 -14.031635 29.671765 -12.669891 -5.632322 11.500249 4.387826 2.739562 -12.082682 1.387435 -2.304845 53.785349 -7.386510 0.685990 -5.212530 -14.464070 -13.911376 5.011608 3.350554 14.760060 -5.362906 56.659691 -55.134757 -25.858799 -3.868497 2.307529 0.830960 0.225680 0.163740 0.197660 5.688680 8.553059 8.742920 8.016876 -10.161139 -7.180307 -30.781648 30.593244 -5.567472 1.980279 -1.108553 -0.394270 0.438060 0.434780 -0.001350 
-0.612610 18.856030 -1.997900 -9.123168 19.013033 -8.078439 -14.969562 12.687443 1.845303 0.446558 -1.937109 -11.216158 5.596326 3.036480 25.561094 -0.701788 4.533127 3.078589 -0.068020 -0.339690 -0.034790 18.769258 -9.161755 5.624271 -1.176323 12.495422 -55.501731 2.678034 -12.331654 59.574723 -1.506749 -8.941093 1.092687 -0.239160 0.465600 0.476780 -4.879838 -1.563477 -8.567928 21.713610 -12.186503 28.537148 -10.815899 -5.058298 12.001307 4.109025 4.503607 -12.257451 4.805913 -4.252206 59.894229 -8.818550 1.393970 -9.987540 -16.219512 -15.367286 4.888968 9.687714 15.489552 -3.314042 45.543721 -56.514804 -19.999410 -3.852821 2.497018 0.944870 0.111970 0.302030 0.151750 8.333408 8.619455 8.478154 0.823383 -13.582153 -4.909853 -22.331976 30.321119 -2.987583 2.015707 -1.031939 -0.351470 0.427350 0.372410 -0.076130 
-0.498060 18.717930 -1.992260 -6.991633 18.687559 -6.690073 -14.998862 12.730568 2.035717 -1.325703 -2.242250 -11.012563 6.199805 2.860392 28.103994 -0.689304 4.770578 2.941167 0.044020 -0.197700 0.069620 18.717936 -9.196498 5.501785 -1.298714 11.421088 -55.563509 3.022687 -10.042941 50.598814 -1.155702 -7.027269 1.648367 -0.162790 0.355100 0.456460 -4.762635 -1.653674 -8.516371 19.045083 -10.582379 26.986047 -9.493107 -4.606451 12.701922 3.923403 5.270047 -12.444832 6.595574 -5.361484 65.260871 -8.637250 1.526470 -13.039970 -16.589734 -15.652908 4.842508 13.906273 14.390504 -1.374446 33.082603 -51.111662 -11.899811 -3.815984 2.675403 1.028160 0.033490 0.402000 0.152680 9.400790 8.421508 8.075571 -4.122500 -15.602954 -3.137920 -15.850648 29.103468 -1.296618 2.049353 -1.013197 -0.337350 0.451140 0.309040 -0.108380 
